<svg width="197" height="77" viewBox="0 0 197 77" fill="none" xmlns="http://www.w3.org/2000/svg">
<g clip-path="url(#clip0)">
<mask id="mask0" mask-type="alpha" maskUnits="userSpaceOnUse" x="11" y="9" width="58" height="59">
<path d="M32.0886 9.19827C37.278 9.19827 41.5238 11.5598 48.3644 15.1021C54.9691 18.8805 63.9325 21.242 67.2349 29.7435C70.5372 38.4811 68.886 45.0933 62.2814 54.5394C55.9126 64.2216 50.2514 68 41.5238 68C33.0321 68 29.0221 64.2216 20.7663 54.5394C12.5105 45.0933 11.3311 40.6064 11.0952 33.0496C10.6234 25.4927 14.1616 18.8805 17.9357 14.8659C21.474 10.8513 26.6633 9.19827 32.0886 9.19827Z" fill="white"/>
</mask>
<g mask="url(#mask0)">
<g filter="url(#filter0_f)">
<path d="M35.7282 101.809C72.029 101.809 101.456 72.3475 101.456 36.0052C101.456 -0.33716 72.029 -29.7984 35.7282 -29.7984C-0.57246 -29.7984 -30 -0.33716 -30 36.0052C-30 72.3475 -0.57246 101.809 35.7282 101.809Z" fill="#00FFAA"/>
</g>
<g filter="url(#filter1_f)">
<path d="M108.085 163.742C144.385 163.742 173.813 134.28 173.813 97.938C173.813 61.5957 144.385 32.1344 108.085 32.1344C71.7839 32.1344 42.3564 61.5957 42.3564 97.938C42.3564 134.28 71.7839 163.742 108.085 163.742Z" fill="#00FFAA"/>
</g>
<g filter="url(#filter2_f)">
<path d="M49.5367 149.364C84.6172 149.364 113.056 120.893 113.056 85.7726C113.056 50.6519 84.6172 22.1809 49.5367 22.1809C14.4561 22.1809 -13.9822 50.6519 -13.9822 85.7726C-13.9822 120.893 14.4561 149.364 49.5367 149.364Z" fill="#FFFF00"/>
</g>
<g filter="url(#filter3_f)">
<path d="M84.8863 195.814C121.187 195.814 150.615 166.353 150.615 130.01C150.615 93.668 121.187 64.2067 84.8863 64.2067C48.5856 64.2067 19.1581 93.668 19.1581 130.01C19.1581 166.353 48.5856 195.814 84.8863 195.814Z" fill="#FFFF00"/>
</g>
<g filter="url(#filter4_f)">
<path d="M154.481 116.186C189.562 116.186 218 87.7151 218 52.5943C218 17.4736 189.562 -10.9974 154.481 -10.9974C119.401 -10.9974 90.9622 17.4736 90.9622 52.5943C90.9622 87.7151 119.401 116.186 154.481 116.186Z" fill="#00FFAA"/>
</g>
</g>
<path d="M32.052 26.304V51H49.368L48.648 44.952H39.684V26.304H32.052ZM61.282 32.244H60.382C54.658 32.244 50.554 35.484 50.554 41.244V42.36C50.554 48.12 54.91 51.36 60.634 51.36H61.174C66.862 51.36 70.138 48.156 70.138 44.088H63.55C63.55 45.852 62.65 47.004 60.742 47.004C58.582 47.004 58.186 45.096 58.186 42.756H70.174V40.524C70.174 35.736 66.934 32.244 61.282 32.244ZM60.67 36.6C62.11 36.6 63.154 37.536 63.154 39.624H58.186C58.186 37.644 59.158 36.6 60.67 36.6ZM82.4351 32.244H81.2471C75.9191 32.244 72.6071 34.692 72.6071 37.752C72.6071 37.968 72.6071 38.148 72.6431 38.256H79.4831V38.112C79.4831 37.104 80.7431 36.42 81.7871 36.42C83.0831 36.42 84.1271 37.176 84.1271 38.58V39.624C76.6391 39.624 72.0671 40.74 72.0671 45.852C72.0671 50.748 75.5591 51.36 78.5471 51.36C81.4991 51.36 83.2271 49.884 84.4871 48.444C84.8831 50.172 86.5751 51.36 89.7791 51.36C91.6511 51.36 92.7671 51 93.4151 50.532V46.68C93.0191 46.896 92.5871 47.004 92.1551 47.004C91.6151 47.004 91.0391 46.644 91.0391 45.672V38.076C91.0391 34.764 88.2311 32.244 82.4351 32.244ZM84.1271 42.9V44.484C84.1271 46.032 82.9751 47.004 81.6791 47.004C80.5631 47.004 79.5191 46.68 79.5191 45.276C79.5191 43.872 80.8151 42.9 84.1271 42.9ZM106.448 32.244C104.252 32.244 102.74 33.504 101.804 34.728L101.156 32.604H95.468V57.516H102.596V49.092C103.352 50.352 104.792 51.36 107.348 51.36C111.2 51.36 114.296 48.3 114.296 42V41.604C114.296 35.304 110.804 32.244 106.448 32.244ZM104.828 36.6C106.088 36.6 107.06 37.716 107.06 39.12V44.34C107.06 45.744 106.088 46.86 104.828 46.86C103.568 46.86 102.596 45.744 102.596 44.34V39.12C102.596 37.716 103.568 36.6 104.828 36.6ZM128.897 25.944H127.889C121.121 25.944 116.405 30.768 116.405 36.744V40.56C116.405 46.536 120.761 51.36 126.701 51.36H127.061C129.725 51.36 132.605 50.1 134.117 48.372L135.125 51H139.157C138.977 49.164 138.905 48.048 138.905 45.816V37.176H127.745V42.072H131.921V42.504C131.921 44.772 130.589 45.708 128.141 45.708C125.945 45.708 124.541 44.124 124.541 42.108V35.16C124.541 33.144 125.945 31.56 128.141 31.56C130.589 31.56 131.921 32.856 131.921 35.196H138.905C138.905 29.796 134.549 25.944 128.897 25.944ZM150.937 51.36H152.089C157.561 51.36 161.629 47.652 161.629 42.18V41.424C161.629 35.988 157.561 32.244 152.089 32.244H150.937C145.465 32.244 141.397 35.988 141.397 41.424V42.18C141.397 47.58 145.465 51.36 150.937 51.36ZM151.513 47.004C150.109 47.004 149.029 45.888 149.029 44.484V39.12C149.029 37.716 150.109 36.6 151.513 36.6C152.917 36.6 153.997 37.716 153.997 39.12V44.484C153.997 45.888 152.917 47.004 151.513 47.004ZM170.134 32.604H162.538L168.478 51H176.722L182.734 32.604H175.786L173.086 43.116H172.834L170.134 32.604Z" fill="black"/>
</g>
<defs>
<filter id="filter0_f" x="-80.7589" y="-80.5574" width="232.974" height="233.125" filterUnits="userSpaceOnUse" color-interpolation-filters="sRGB">
<feFlood flood-opacity="0" result="BackgroundImageFix"/>
<feBlend mode="normal" in="SourceGraphic" in2="BackgroundImageFix" result="shape"/>
<feGaussianBlur stdDeviation="25.3795" result="effect1_foregroundBlur"/>
</filter>
<filter id="filter1_f" x="-8.40258" y="-18.6246" width="232.974" height="233.125" filterUnits="userSpaceOnUse" color-interpolation-filters="sRGB">
<feFlood flood-opacity="0" result="BackgroundImageFix"/>
<feBlend mode="normal" in="SourceGraphic" in2="BackgroundImageFix" result="shape"/>
<feGaussianBlur stdDeviation="25.3795" result="effect1_foregroundBlur"/>
</filter>
<filter id="filter2_f" x="-64.7412" y="-28.5781" width="228.556" height="228.701" filterUnits="userSpaceOnUse" color-interpolation-filters="sRGB">
<feFlood flood-opacity="0" result="BackgroundImageFix"/>
<feBlend mode="normal" in="SourceGraphic" in2="BackgroundImageFix" result="shape"/>
<feGaussianBlur stdDeviation="25.3795" result="effect1_foregroundBlur"/>
</filter>
<filter id="filter3_f" x="-31.6008" y="13.4478" width="232.974" height="233.125" filterUnits="userSpaceOnUse" color-interpolation-filters="sRGB">
<feFlood flood-opacity="0" result="BackgroundImageFix"/>
<feBlend mode="normal" in="SourceGraphic" in2="BackgroundImageFix" result="shape"/>
<feGaussianBlur stdDeviation="25.3795" result="effect1_foregroundBlur"/>
</filter>
<filter id="filter4_f" x="40.2032" y="-61.7564" width="228.556" height="228.701" filterUnits="userSpaceOnUse" color-interpolation-filters="sRGB">
<feFlood flood-opacity="0" result="BackgroundImageFix"/>
<feBlend mode="normal" in="SourceGraphic" in2="BackgroundImageFix" result="shape"/>
<feGaussianBlur stdDeviation="25.3795" result="effect1_foregroundBlur"/>
</filter>
<clipPath id="clip0">
<rect width="197" height="77" fill="white"/>
</clipPath>
</defs>
</svg>
